<?xml version="1.0" encoding="UTF-8" standalone="no"?>
<!-- Created with Inkscape (http://www.inkscape.org/) -->

<svg
   version="1.1"
   id="svg1"
   width="48.260036"
   height="48.383781"
   viewBox="0 0 68.94291 69.119688"
   xmlns="http://www.w3.org/2000/svg"
   xmlns:svg="http://www.w3.org/2000/svg">
  <defs
     id="defs1" />
  <ellipse
     style="fill:#ffffff"
     id="path1-5"
     cx="34.471455"
     cy="34.559845"
     rx="34.471455"
     ry="34.559845" />
  <ellipse
     style="fill:#000000;stroke-width:0.930836"
     id="path1"
     cx="34.70369"
     cy="34.348427"
     rx="32.350136"
     ry="31.908194" />
  <g
     id="layer1"
     transform="translate(-1.0052032,0.14213562)">
    <path
       id="path20"
       style="fill:#ffffff"
       d="M 3.4863281,64.876953 A 33.499184,31.024309 0 0 1 2.6523438,57.99414 33.499184,31.024309 0 0 1 36.150391,26.970703 a 33.499184,31.024309 0 0 1 33.5,31.023437 33.499184,31.024309 0 0 1 -0.691407,6.267578 A 35.090176,39.686367 0 0 0 36.328125,39.167968 35.090176,39.686367 0 0 0 3.4863281,64.876953 Z" />
    <path
       style="fill:#ffffff"
       d="m 28.461048,18.915106 0.176777,34.471456 6.894291,9.899495 6.363961,-9.369165 -0.53033,-35.885669 9.899495,-2.474874 -14.672466,-3.358757 -1.767767,-8.6620581 -2.12132,8.6620581 -13.788583,3.358757 z"
       id="path21" />
  </g>
</svg>
